<svg version="1.1" id="Layer_1" xmlns="http://www.w3.org/2000/svg" xmlns:xlink="http://www.w3.org/1999/xlink" x="0px" y="0px"
	 width="100%" viewBox="0 0 1024 1024" enable-background="new 0 0 1024 1024" xml:space="preserve">
<path fill="#000000" opacity="1.000000" stroke="none" 
	d="
M804.079224,724.988403 
	C797.569031,735.781250 789.893860,745.188354 780.966370,753.527527 
	C778.189087,756.121704 777.361755,758.430237 778.748230,762.199585 
	C783.169373,774.219849 787.025146,786.447693 791.424805,798.476318 
	C793.109375,803.082031 793.242615,807.473083 792.080994,812.105591 
	C789.958801,820.569275 783.646545,824.070190 775.435059,820.785706 
	C767.091248,817.448303 758.959656,813.584473 750.676636,810.089722 
	C739.018311,805.170898 727.266479,800.471619 715.648376,795.461060 
	C713.129089,794.374573 711.158508,795.161682 708.974976,795.888062 
	C691.774170,801.610168 674.070374,804.590332 655.986023,804.071045 
	C610.362061,802.760864 572.362305,783.924683 540.731812,751.872925 
	C515.755615,726.564087 500.681519,695.806763 496.008026,660.632812 
	C491.050293,623.319641 495.288147,586.583252 514.031616,553.647949 
	C538.902344,509.946014 576.664307,482.366943 626.638123,472.565521 
	C642.607849,469.433411 658.797119,468.463745 674.846191,469.859772 
	C735.473633,475.133331 782.245911,503.378662 812.260803,556.774536 
	C822.968201,575.822876 828.183899,597.146606 830.429871,619.093384 
	C834.359131,657.488525 823.603821,692.113098 804.079224,724.988403 
M691.607300,680.775024 
	C676.994141,640.787903 662.321838,600.822205 647.840637,560.787292 
	C645.973877,555.626343 642.956848,553.262695 637.513550,553.388733 
	C630.189697,553.558289 622.852966,553.597473 615.533081,553.353027 
	C610.954468,553.199951 608.647278,555.080139 607.170593,559.384949 
	C601.287537,576.534302 595.066101,593.567139 589.050232,610.671326 
	C578.453430,640.799988 567.881165,670.937378 557.384583,701.101074 
	C555.497314,706.524536 556.356934,707.588257 562.134216,707.662476 
	C568.794800,707.748047 575.467163,707.468750 582.115479,707.767883 
	C586.224121,707.952759 588.112549,706.250977 589.222107,702.493347 
	C591.528809,694.681396 594.274841,686.999268 596.583679,679.187927 
	C597.517334,676.029419 598.905884,674.545837 602.457825,674.577576 
	C619.610229,674.731079 636.765808,674.723389 653.917969,674.548645 
	C657.420227,674.512939 658.961060,675.914368 659.964233,679.034058 
	C662.456970,686.786682 665.190369,694.461914 667.821045,702.170349 
	C668.818481,705.093018 670.057617,708.285583 673.500000,708.424988 
	C680.471680,708.707336 687.480835,708.600281 694.449768,708.210938 
	C698.571289,707.980652 700.297729,705.603455 698.718628,701.308899 
	C696.308716,694.754578 694.096619,688.127625 691.607300,680.775024 
M753.799438,575.500610 
	C753.783447,570.003540 753.749756,564.506470 753.757568,559.009399 
	C753.762878,555.277588 751.842102,553.469666 748.209961,553.479919 
	C742.216187,553.496765 736.211182,553.390930 730.232239,553.722412 
	C723.770569,554.080566 723.384705,554.647827 723.367798,561.349121 
	C723.334961,574.342773 723.390564,587.336609 723.387878,600.330383 
	C723.381042,634.147461 723.438721,667.965027 723.258911,701.781189 
	C723.234558,706.364563 724.572205,708.045227 729.217041,707.776001 
	C735.027832,707.439148 740.873352,707.707397 746.703857,707.701172 
	C753.851257,707.693542 753.895935,707.655518 753.891235,700.440674 
	C753.864258,659.127197 753.830566,617.813782 753.799438,575.500610 
z"/>
<path fill="#000000" opacity="1.000000" stroke="none" 
	d="
M546.000000,200.719818 
	C561.997925,200.713867 577.498413,200.870865 592.992310,200.617813 
	C598.582458,200.526505 602.840576,202.305420 606.764343,206.224747 
	C638.240479,237.665314 669.808533,269.013947 701.384888,300.354095 
	C717.704163,316.551392 734.041809,332.731293 750.505005,348.781708 
	C753.727295,351.923218 755.305847,355.378601 755.303223,359.801666 
	C755.283081,393.796997 755.312927,427.792358 755.308044,461.787689 
	C755.307861,463.083923 755.542114,464.469788 754.511780,465.615082 
	C752.708740,466.281311 751.321838,465.172516 749.908447,464.382568 
	C744.368896,461.286316 738.700195,458.365540 732.600403,456.675995 
	C727.211853,455.183411 725.793701,451.938141 725.831665,446.751434 
	C725.979004,426.589050 725.830444,406.424469 725.781189,386.260712 
	C725.764465,379.396057 725.749939,379.385498 718.921387,379.382324 
	C689.925354,379.368866 660.915344,379.916718 631.937378,379.188965 
	C605.746643,378.531158 585.585693,362.489990 579.278015,339.296600 
	C577.433838,332.515594 576.852295,325.559509 576.856812,318.545685 
	C576.873779,292.215973 576.884338,265.886230 576.885742,239.556519 
	C576.886108,231.940872 576.868408,231.906006 569.080933,231.904388 
	C490.425018,231.888000 411.769104,231.906754 333.113190,231.856537 
	C317.953613,231.846848 302.794098,231.590073 287.634735,231.426071 
	C283.778625,231.384354 279.925537,231.682556 276.277100,232.843033 
	C268.436615,235.336884 263.763336,242.122101 263.359924,251.200302 
	C263.241669,253.861877 263.305847,256.532074 263.306061,259.198303 
	C263.318573,421.009674 263.333008,582.821045 263.348297,744.632446 
	C263.348541,747.460144 263.477478,750.237488 264.111389,753.050110 
	C266.556610,763.899780 273.385193,769.613892 284.583130,769.626038 
	C321.911346,769.666626 359.239624,769.645874 396.567902,769.647278 
	C433.396240,769.648621 470.224609,769.665710 507.052887,769.619629 
	C510.428040,769.615417 513.688232,769.929260 516.836670,771.170654 
	C523.500305,773.797974 527.853699,780.156982 527.089783,786.158752 
	C526.206482,793.098206 520.189209,798.736938 512.768677,799.310913 
	C508.122284,799.670288 503.450897,799.860352 498.790619,799.862488 
	C431.966400,799.892517 365.141571,800.017761 298.318512,799.738098 
	C286.954834,799.690552 275.227631,801.066101 264.331818,796.049194 
	C247.629120,788.358643 237.943069,775.245239 234.676819,757.285522 
	C233.000427,748.067688 233.133453,738.692688 233.124161,729.403564 
	C232.968491,573.591797 232.956696,417.779816 232.940201,261.967926 
	C232.939346,253.979294 233.424850,246.037216 235.421722,238.222275 
	C241.258881,215.378220 258.060791,203.460403 280.102356,201.808853 
	C312.687439,199.367310 345.382263,200.999191 378.027710,200.847580 
	C433.850800,200.588318 489.675812,200.741013 546.000000,200.719818 
M608.986206,332.239990 
	C613.744751,344.006744 623.450012,350.637756 635.989136,350.644714 
	C657.297302,350.656525 678.605408,350.657196 699.913574,350.633301 
	C702.210571,350.630707 704.566223,350.950012 705.390381,351.222504 
	C673.191040,318.315918 640.991699,285.409332 608.278320,251.977463 
	C608.278320,266.450684 608.185791,280.251709 608.305725,294.050903 
	C608.414062,306.525391 607.797974,319.007996 608.986206,332.239990 
z"/>
<path fill="#000000" opacity="1.000000" stroke="none" 
	d="
M499.999878,444.368317 
	C442.840485,444.369049 386.181091,444.363190 329.521698,444.377563 
	C322.263916,444.379395 315.763947,442.527069 312.185822,435.701355 
	C307.372406,426.519318 313.605988,415.783112 324.048065,414.714691 
	C325.204010,414.596405 326.379211,414.651642 327.545502,414.651642 
	C413.867737,414.650238 500.189972,414.648010 586.512207,414.657654 
	C595.105164,414.658600 600.447449,417.883270 602.342285,424.105988 
	C605.695190,435.117096 598.861267,443.983215 586.487732,444.306396 
	C577.494873,444.541229 568.491272,444.364380 559.492432,444.365601 
	C539.828247,444.368256 520.164062,444.367432 499.999878,444.368317 
z"/>
<path fill="#000000" opacity="1.000000" stroke="none" 
	d="
M512.901855,330.750549 
	C515.865967,330.953339 518.384033,330.949158 520.817810,331.400055 
	C529.365906,332.983795 534.159302,338.269043 534.020813,345.716187 
	C533.878235,353.381989 528.039978,359.287201 519.564758,360.256134 
	C518.082581,360.425629 516.570007,360.352783 515.071472,360.352997 
	C452.935608,360.361725 390.799713,360.369202 328.663849,360.358948 
	C326.180634,360.358521 323.715576,360.448151 321.240906,359.719208 
	C313.597809,357.467865 309.791107,352.301605 310.354218,344.612000 
	C310.929962,336.749908 315.239532,332.049011 323.020813,330.914062 
	C324.493835,330.699188 326.011688,330.748901 327.508881,330.748810 
	C389.144989,330.744812 450.781067,330.749084 512.901855,330.750549 
z"/>
<path fill="#000000" opacity="1.000000" stroke="none" 
	d="
M435.000000,497.761780 
	C449.331909,497.755371 463.164215,497.683044 476.995575,497.767761 
	C485.769287,497.821503 491.232697,501.004608 493.221832,506.884888 
	C496.726715,517.246155 490.662811,526.111267 479.258484,527.252319 
	C477.936768,527.384521 476.594452,527.330017 475.261688,527.330139 
	C426.766663,527.334900 378.271667,527.323975 329.776672,527.363281 
	C326.418549,527.366028 323.116608,527.142273 319.895508,526.225891 
	C313.513855,524.410278 309.680725,519.185852 309.696320,512.454651 
	C309.711823,505.757233 313.577423,500.628510 320.129242,498.934570 
	C323.511261,498.060120 326.974304,497.702759 330.510712,497.709259 
	C365.173737,497.773041 399.836884,497.756256 435.000000,497.761780 
z"/>
<path fill="#000000" opacity="1.000000" stroke="none" 
	d="
M322.534973,609.253906 
	C313.206909,606.420288 308.753387,600.699951 309.892548,593.541382 
	C311.303314,584.675720 317.245483,579.656189 326.514343,579.650452 
	C363.324097,579.627502 400.133911,579.600159 436.943573,579.662476 
	C447.255127,579.679932 454.213165,585.700317 454.329712,594.334717 
	C454.440887,602.570496 447.850067,609.159607 438.900513,609.334961 
	C428.910583,609.530762 418.914215,609.413818 408.920685,609.403992 
	C380.272858,609.375793 351.625031,609.332886 322.534973,609.253906 
z"/>
<path fill="#000000" opacity="1.000000" stroke="none" 
	d="
M170.637390,934.963745 
	C159.886795,937.671997 144.013092,930.804565 137.556259,920.684021 
	C132.712814,913.092224 129.372482,904.736267 126.166183,896.361450 
	C124.977203,893.255859 124.335869,889.985107 126.473030,886.801453 
	C129.633591,882.093201 133.613678,882.072021 136.721298,886.783142 
	C138.591415,889.618103 140.942368,891.941406 144.483719,892.581604 
	C159.044296,895.213928 167.417740,904.889282 173.081665,917.663391 
	C173.821747,919.332458 174.559067,921.005615 175.379120,922.635864 
	C178.851730,929.539185 178.260117,931.220581 170.637390,934.963745 
z"/>
<path fill="#000000" opacity="1.000000" stroke="none" 
	d="
M158.202118,877.786682 
	C152.175247,872.588074 147.030212,867.073242 143.382553,860.134155 
	C150.493195,866.889832 157.603836,873.645447 165.651627,881.291443 
	C161.314941,881.653198 160.176880,879.314270 158.202118,877.786682 
z"/>
<path fill="#000000" opacity="1.000000" stroke="none" 
	d="
M617.854126,613.029907 
	C620.422607,605.249146 622.841187,597.834167 625.341248,590.446838 
	C625.911804,588.760803 626.389221,586.655945 628.725403,586.702332 
	C630.821594,586.744019 631.138733,588.716187 631.687012,590.246643 
	C637.566162,606.657349 643.470398,623.059265 649.259460,639.501831 
	C650.842529,643.998230 649.947144,645.150940 645.012817,645.183350 
	C634.207458,645.254211 623.400513,645.260620 612.595581,645.153320 
	C607.864075,645.106384 607.094604,643.796814 608.678406,639.263367 
	C611.690430,630.641907 614.714661,622.024719 617.854126,613.029907 
z"/>
</svg>